HIERARCHY
ROOT hip
{
  OFFSET 108.893 80.3563 -50.3098
  CHANNELS 6 Xposition Yposition Zposition Zrotation Xrotation Yrotation
  JOINT abdomen
  {
    OFFSET 0 20.6881 -0.73152
    CHANNELS 3 Zrotation Xrotation Yrotation
    JOINT chest
    {
      OFFSET 0 11.7043 -0.48768
      CHANNELS 3 Zrotation Xrotation Yrotation
      JOINT neck
      {
        OFFSET 0 22.1894 -2.19456
        CHANNELS 3 Zrotation Xrotation Yrotation
        JOINT head
        {
          OFFSET -0.24384 7.07133 1.2192
          CHANNELS 3 Zrotation Xrotation Yrotation
          JOINT leftEye
          {
            OFFSET 4.14528 8.04674 8.04672
            CHANNELS 3 Zrotation Xrotation Yrotation
            End Site
            {
              OFFSET 1 0 0
            }
          }
          JOINT rightEye
          {
            OFFSET -3.6576 8.04674 8.04672
            CHANNELS 3 Zrotation Xrotation Yrotation
            End Site
            {
              OFFSET 1 0 0
            }
          }
        }
      }
      JOINT rCollar
      {
        OFFSET -2.68224 19.2634 -4.8768
        CHANNELS 3 Zrotation Xrotation Yrotation
        JOINT rShldr
        {
          OFFSET -8.77824 -1.95073 1.46304
          CHANNELS 3 Zrotation Xrotation Yrotation
          JOINT rForeArm
          {
            OFFSET -28.1742 -1.7115 0.48768
            CHANNELS 3 Zrotation Xrotation Yrotation
            JOINT rHand
            {
              OFFSET -22.5879 0.773209 7.07136
              CHANNELS 3 Zrotation Xrotation Yrotation
              JOINT rThumb1
              {
                OFFSET -1.2192 -0.487915 3.41376
                CHANNELS 3 Zrotation Xrotation Yrotation
                JOINT rThumb2
                {
                  OFFSET -3.37035 -0.52449 3.41376
                  CHANNELS 3 Zrotation Xrotation Yrotation
                  End Site
                  {
                    OFFSET -1.78271 -1.18214 1.43049
                  }
                }
              }
              JOINT rIndex1
              {
                OFFSET -7.75947 0.938293 5.60832
                CHANNELS 3 Zrotation Xrotation Yrotation
                JOINT rIndex2
                {
                  OFFSET -2.54057 -0.884171 1.56538
                  CHANNELS 3 Zrotation Xrotation Yrotation
                  End Site
                  {
                    OFFSET -1.62519 -0.234802 1.16502
                  }
                }
              }
              JOINT rMid1
              {
                OFFSET -8.24714 1.18213 3.41376
                CHANNELS 3 Zrotation Xrotation Yrotation
                JOINT rMid2
                {
                  OFFSET -3.10165 -0.590103 1.0647
                  CHANNELS 3 Zrotation Xrotation Yrotation
                  End Site
                  {
                    OFFSET -2.48547 -0.328903 0.83742
                  }
                }
              }
              JOINT rRing1
              {
                OFFSET -8.82822 0.546677 1.51678
                CHANNELS 3 Zrotation Xrotation Yrotation
                JOINT rRing2
                {
                  OFFSET -2.60934 -0.819778 -0.0198488
                  CHANNELS 3 Zrotation Xrotation Yrotation
                  End Site
                  {
                    OFFSET -2.33842 -0.294052 0.168128
                  }
                }
              }
              JOINT rPinky1
              {
                OFFSET -8.27202 -0.0477905 -0.4584
                CHANNELS 3 Zrotation Xrotation Yrotation
                JOINT rPinky2
                {
                  OFFSET -1.82734 -0.647385 -0.700984
                  CHANNELS 3 Zrotation Xrotation Yrotation
                  End Site
                  {
                    OFFSET -1.69225 -0.51767 -0.607171
                  }
                }
              }
            }
          }
        }
      }
      JOINT lCollar
      {
        OFFSET 2.68224 19.2634 -4.8768
        CHANNELS 3 Zrotation Xrotation Yrotation
        JOINT lShldr
        {
          OFFSET 8.77824 -1.95073 1.46304
          CHANNELS 3 Zrotation Xrotation Yrotation
          JOINT lForeArm
          {
            OFFSET 28.1742 -1.7115 0.48768
            CHANNELS 3 Zrotation Xrotation Yrotation
            JOINT lHand
            {
              OFFSET 22.5879 0.773209 7.07136
              CHANNELS 3 Zrotation Xrotation Yrotation
              JOINT lThumb1
              {
                OFFSET 1.2192 -0.487915 3.41376
                CHANNELS 3 Zrotation Xrotation Yrotation
                JOINT lThumb2
                {
                  OFFSET 3.37035 -0.52449 3.41376
                  CHANNELS 3 Zrotation Xrotation Yrotation
                  End Site
                  {
                    OFFSET 1.78271 -1.18214 1.43049
                  }
                }
              }
              JOINT lIndex1
              {
                OFFSET 7.75947 0.938293 5.60832
                CHANNELS 3 Zrotation Xrotation Yrotation
                JOINT lIndex2
                {
                  OFFSET 2.54057 -0.884171 1.56538
                  CHANNELS 3 Zrotation Xrotation Yrotation
                  End Site
                  {
                    OFFSET 1.62519 -0.234802 1.16502
                  }
                }
              }
              JOINT lMid1
              {
                OFFSET 8.24714 1.18213 3.41376
                CHANNELS 3 Zrotation Xrotation Yrotation
                JOINT lMid2
                {
                  OFFSET 3.10165 -0.590103 1.0647
                  CHANNELS 3 Zrotation Xrotation Yrotation
                  End Site
                  {
                    OFFSET 2.48547 -0.328903 0.83742
                  }
                }
              }
              JOINT lRing1
              {
                OFFSET 8.82822 0.546677 1.51678
                CHANNELS 3 Zrotation Xrotation Yrotation
                JOINT lRing2
                {
                  OFFSET 2.60934 -0.819778 -0.0198488
                  CHANNELS 3 Zrotation Xrotation Yrotation
                  End Site
                  {
                    OFFSET 2.33842 -0.294052 0.168128
                  }
                }
              }
              JOINT lPinky1
              {
                OFFSET 8.27202 -0.0477905 -0.4584
                CHANNELS 3 Zrotation Xrotation Yrotation
                JOINT lPinky2
                {
                  OFFSET 1.82734 -0.647385 -0.700984
                  CHANNELS 3 Zrotation Xrotation Yrotation
                  End Site
                  {
                    OFFSET 1.69225 -0.51767 -0.607171
                  }
                }
              }
            }
          }
        }
      }
    }
  }
  JOINT rButtock
  {
    OFFSET -8.77824 4.35084 1.2192
    CHANNELS 3 Zrotation Xrotation Yrotation
    JOINT rThigh
    {
      OFFSET 0 -1.70687 -2.19456
      CHANNELS 3 Zrotation Xrotation Yrotation
      JOINT rShin
      {
        OFFSET 0 -36.8199 0.73152
        CHANNELS 3 Zrotation Xrotation Yrotation
        JOINT rFoot
        {
          OFFSET 0.73152 -45.1104 -5.12064
          CHANNELS 3 Zrotation Xrotation Yrotation
          End Site
          {
            OFFSET -1.1221 -3.69964 12.103
          }
        }
      }
    }
  }
  JOINT lButtock
  {
    OFFSET 8.77824 4.35084 1.2192
    CHANNELS 3 Zrotation Xrotation Yrotation
    JOINT lThigh
    {
      OFFSET 0 -1.70687 -2.19456
      CHANNELS 3 Zrotation Xrotation Yrotation
      JOINT lShin
      {
        OFFSET 0 -36.8199 0.73152
        CHANNELS 3 Zrotation Xrotation Yrotation
        JOINT lFoot
        {
          OFFSET -0.73152 -45.1104 -5.12064
          CHANNELS 3 Zrotation Xrotation Yrotation
          End Site
          {
            OFFSET 1.1221 -3.69964 12.103
          }
        }
      }
    }
  }
}
MOTION
Frames:	5
Frame Time:	0.00833333
-172.135 85.1237 -0.913733 -0.330517 -0.0106499 0.00540072 0.435972 -0.0238512 0.0128201 0.121275 -0.0396248 0.0210493 -7.96461e-016 7.95139e-016 1.11816e-016 -2.24254e-015 9.54166e-015 3.37002e-016 -0 0 0 -0 0 0 -3.49069e-016 2.4654e-017 1.49089e-016 -6.41246e-015 1.20513e-015 2.18663e-015 -1.34677e-013 8.52786e-014 3.81667e-014 -1.61883e-012 1.77465e-013 2.06736e-013 -3.80702e-012 5.69108e-013 5.56597e-013 -6.58057e-012 9.79611e-013 9.55757e-013 -3.80355e-012 5.66934e-013 5.43875e-013 7.73091 5.47488 0.417314 -3.80857e-012 5.68524e-013 5.53417e-013 2.90554 0.965183 0.102902 -3.80251e-012 5.68524e-013 5.52621e-013 10.2786 0.731801 0.0259123 -3.8111e-012 5.7409e-013 5.47055e-013 2.22167 -0.733487 -0.20892 -4.46096e-016 2.48481e-017 -4.96962e-017 -9.89798e-015 8.88319e-016 1.98785e-016 -1.48592e-013 9.93923e-016 6.36111e-015 -1.6109e-012 2.55438e-013 2.44903e-013 -3.81545e-012 5.60088e-013 5.47055e-013 -6.58375e-012 9.66889e-013 9.52576e-013 -3.81865e-012 5.60175e-013 5.50236e-013 -7.73091 5.47488 -0.417314 -3.81418e-012 5.5938e-013 5.43875e-013 -2.90554 0.965183 -0.102902 -3.81959e-012 5.59877e-013 5.51826e-013 -10.2786 0.731801 -0.0259123 -3.80951e-012 5.63753e-013 5.47055e-013 -2.22167 -0.733487 0.20892 -2.03217e-016 0 -3.88251e-019 0.651957 -4.7111 -0.0694759 -0.000843862 2.99808 0.00382083 -0.326349 1.72324 0.0697839 2.03217e-016 0 3.88251e-019 0.0331162 -2.68025 0.0231606 0.00579515 -0.679758 0.0505436 0.296184 3.3702 -0.0966832 
-165.296 82.4293 -11.1772 0.291948 7.4778 -28.0196 0.365902 -0.204798 -0.291606 2.20697 -4.12755 0.246289 0.83861 -2.13557 0.995452 -0.452009 6.93087 2.26857 -0 0 0 -0 0 0 2.90463e-014 -3.80123e-013 1.25817e-013 17.3341 10.661 -4.2958 -4.84654 -2.34312 7.41059 0.0555961 -5.23588 -0.724813 -2.42891e-010 -6.73831e-010 9.39874e-010 -4.32206e-010 -1.16939e-009 1.62221e-009 -2.42887e-010 -6.73831e-010 9.39863e-010 7.73091 5.47488 0.417314 -2.42893e-010 -6.7383e-010 9.39871e-010 2.90554 0.965183 0.102902 -2.42888e-010 -6.73831e-010 9.3987e-010 10.2786 0.731801 0.0259123 -2.42894e-010 -6.73826e-010 9.39868e-010 2.22167 -0.733487 -0.20892 2.89771e-014 -3.8012e-013 1.25602e-013 -22.8787 7.84971 1.89554 5.73975 -3.00413 -8.49352 -0.00746385 1.91657 -0.268812 -4.86248e-010 5.81467e-010 -1.02859e-010 -8.41055e-010 1.00797e-009 -1.74348e-010 -4.86251e-010 5.81467e-010 -1.02855e-010 -7.73091 5.47488 -0.417314 -4.86247e-010 5.81466e-010 -1.0286e-010 -2.90554 0.965183 -0.102902 -4.86251e-010 5.81468e-010 -1.02856e-010 -10.2786 0.731801 -0.0259123 -4.86241e-010 5.8147e-010 -1.02862e-010 -2.22167 -0.733487 0.20892 -2.03217e-016 0 -3.88251e-019 0.730555 -12.9956 2.52585 0.0245091 6.99419 0.119595 -0.491914 -2.37654 -6.20047 2.03217e-016 0 3.88251e-019 -3.24555 -0.3025 -13.5796 0.0144887 -2.17131 0.317873 1.47421 -15.8003 6.32706 
-165.665 82.4052 -11.6722 7.55724 9.37206 -58.3452 0.313871 -0.411755 -0.610895 4.44601 -8.44839 0.48937 1.84566 -4.37787 2.08891 -1.62766 14.2044 4.8536 -0 0 0 -0 0 0 6.27388e-014 -8.18923e-013 2.71661e-013 37.5001 21.7204 -9.35693 -9.31317 -4.68663 15.2787 -0.0321237 -10.7831 -1.51355 -5.1237e-010 -1.43773e-009 1.99406e-009 -9.11957e-010 -2.49508e-009 3.44172e-009 -5.12367e-010 -1.43773e-009 1.99405e-009 7.73091 5.47488 0.417314 -5.12373e-010 -1.43773e-009 1.99406e-009 2.90554 0.965183 0.102902 -5.1237e-010 -1.43773e-009 1.99406e-009 10.2786 0.731801 0.0259123 -5.12373e-010 -1.43773e-009 1.99406e-009 2.22167 -0.733487 -0.20892 6.27015e-014 -8.18917e-013 2.71428e-013 -47.6467 16.1256 3.99542 10.865 -5.97302 -17.5689 0.00424349 3.94303 -0.554058 -1.04754e-009 1.25464e-009 -1.98456e-010 -1.81176e-009 2.17494e-009 -3.35537e-010 -1.04754e-009 1.25464e-009 -1.98451e-010 -7.73091 5.47488 -0.417314 -1.04754e-009 1.25464e-009 -1.98453e-010 -2.90554 0.965183 -0.102902 -1.04754e-009 1.25464e-009 -1.98454e-010 -10.2786 0.731801 -0.0259123 -1.04753e-009 1.25464e-009 -1.98462e-010 -2.22167 -0.733487 0.20892 -2.03217e-016 0 -3.88251e-019 1.7018 -21.6389 5.5607 0.0327467 11.1419 0.240866 -1.63085 -6.56834 -12.8784 2.03217e-016 0 3.88251e-019 -5.49455 1.9561 -27.9852 0.0383759 -3.78726 0.599563 8.25694 -35.248 15.4809 
-165.996 82.3433 -12.1583 14.8924 2.87092 -83.9355 0.219995 -0.566629 -0.900497 6.47676 -12.3026 0.711185 2.73953 -6.39896 3.00301 -3.09422 20.6576 7.22256 -0 0 0 -0 0 0 8.7837e-014 -1.14042e-012 3.77153e-013 57.4358 31.2016 -14.8518 -12.762 -6.56002 22.3674 -0.243622 -15.6974 -2.2493 -7.21058e-010 -2.02263e-009 2.81851e-009 -1.28346e-009 -3.51013e-009 4.86472e-009 -7.21055e-010 -2.02263e-009 2.8185e-009 7.73091 5.47488 0.417314 -7.21061e-010 -2.02263e-009 2.81851e-009 2.90554 0.965183 0.102902 -7.2106e-010 -2.02263e-009 2.81851e-009 10.2786 0.731801 0.0259123 -7.21061e-010 -2.02262e-009 2.81851e-009 2.22167 -0.733487 -0.20892 8.78234e-014 -1.14041e-012 3.76907e-013 -70.3105 23.4412 6.14195 14.6224 -8.22177 -25.7287 0.03179 5.7492 -0.810059 -1.45111e-009 1.74328e-009 -3.09672e-010 -2.51e-009 3.02197e-009 -5.24948e-010 -1.45111e-009 1.74328e-009 -3.09666e-010 -7.73091 5.47488 -0.417314 -1.45111e-009 1.74328e-009 -3.09667e-010 -2.90554 0.965183 -0.102902 -1.45111e-009 1.74328e-009 -3.09671e-010 -10.2786 0.731801 -0.0259123 -1.4511e-009 1.74328e-009 -3.0968e-010 -2.22167 -0.733487 0.20892 -2.03217e-016 0 -3.88251e-019 3.4244 -29.3216 8.63498 0.0252169 14.9862 0.360755 -3.49693 -10.05 -19.0278 2.03217e-016 0 3.88251e-019 -6.6865 3.3505 -40.8692 0.0737845 -5.15393 0.855313 22.5197 -50.4845 29.8342 
-166.276 82.24 -12.6126 17.8474 -5.81736 -99.8958 0.026326 -0.591361 -1.11584 7.91601 -14.991 0.866088 3.18095 -7.87557 3.4519 -3.94413 25.2073 8.62967 -0 0 0 -0 0 0 9.14493e-014 -1.16866e-012 3.81766e-013 72.7507 37.4728 -19.5752 -14.8981 -7.7024 27.3791 -0.466264 -19.0392 -2.77991 -7.77767e-010 -2.16001e-009 3.06862e-009 -1.38432e-009 -3.74857e-009 5.29646e-009 -7.77763e-010 -2.16e-009 3.06861e-009 7.73091 5.47488 0.417314 -7.77769e-010 -2.16001e-009 3.06862e-009 2.90554 0.965183 0.102902 -7.7777e-010 -2.16001e-009 3.06862e-009 10.2786 0.731801 0.0259123 -7.77769e-010 -2.16001e-009 3.06862e-009 2.22167 -0.733487 -0.20892 9.14385e-014 -1.16865e-012 3.81517e-013 -86.528 28.4518 7.98632 16.7894 -9.44188 -31.3575 0.0605655 7.00511 -0.989488 -1.46038e-009 1.77059e-009 -4.59934e-010 -2.52707e-009 3.06913e-009 -7.84918e-010 -1.46038e-009 1.77059e-009 -4.59927e-010 -7.73091 5.47488 -0.417314 -1.46038e-009 1.77059e-009 -4.59927e-010 -2.90554 0.965183 -0.102902 -1.46038e-009 1.77059e-009 -4.59934e-010 -10.2786 0.731801 -0.0259123 -1.46037e-009 1.77059e-009 -4.59943e-010 -2.22167 -0.733487 0.20892 -2.03217e-016 0 -3.88251e-019 5.12715 -34.8371 10.981 0.0093372 18.0722 0.470189 -5.31837 -12.2624 -23.564 2.03217e-016 0 3.88251e-019 -7.37677 3.78438 -49.8216 0.106963 -5.89783 1.04346 40.6825 -58.1774 47.0922 
